<svg xmlns="http://www.w3.org/2000/svg" viewBox="0 0 24 24" fill="white">
  <path d="M20.447 20.452h-3.554v-5.569c0-1.327-.027-3.037-1.852-3.037-1.854 0-2.136 1.445-2.136 2.938v5.668h-3.554V9h3.414v1.561h.049c.476-.9 1.637-1.852 3.369-1.852 3.602 0 4.268 2.37 4.268 5.451v6.292zM5.337 7.433a2.065 2.065 0 11-.001-4.13 2.065 2.065 0 01.001 4.13zm1.777 13.019H3.56V9h3.554v11.452zM22.225 0H1.771C.792 0 0 .771 0 1.722v20.555C0 23.229.792 24 1.771 24h20.451C23.208 24 24 23.229 24 22.277V1.722C24 .771 23.208 0 22.225 0z"></path>
</svg>
