<svg xmlns="http://www.w3.org/2000/svg" viewBox="0 0 24 24" fill="white">
  <path d="M23.954 4.569a10 10 0 01-2.825.775 4.93 4.93 0 002.163-2.724 9.88 9.88 0 01-3.127 1.195 4.916 4.916 0 00-8.37 4.482 13.94 13.94 0 01-10.125-5.138 4.822 4.822 0 001.523 6.574 4.903 4.903 0 01-2.224-.616v.06a4.915 4.915 0 003.946 4.812 4.996 4.996 0 01-2.212.084 4.92 4.92 0 004.588 3.417A9.867 9.867 0 012 19.54a13.9 13.9 0 007.548 2.212c9.057 0 14.01-7.496 14.01-13.986 0-.213-.005-.425-.014-.636A9.936 9.936 0 0024 4.59z"></path>
</svg>
